<svg xmlns="http://www.w3.org/2000/svg" xmlns:xlink="http://www.w3.org/1999/xlink" viewBox="0 0 400 130"><clipPath id="a"><path d="m0 0h400v124.9h-400z"></path></clipPath><g fill="#152b50"><path d="m134.9 81.8h-13.5v-46.5h11.4l.6 4.4c3.7-3 8.1-5.4 14.1-5.4 5.5 0 9.7 1.6 11.9 5.8 3.3-3.4 8.2-5.8 14.5-5.8 9.3 0 13.9 5.1 13.9 15.5v32.1h-13.5v-30c0-4.4-1.3-6.7-5.3-6.7-2.5 0-6 1.4-7.7 3.2 0 .4.1.7.1 1.2v32.3h-13.5v-30c0-4.4-1.3-6.7-5.2-6.7-2.8 0-6.2 1.5-8 3.3z"></path><path d="m231.7 46.6-11.1 3.5c-1.2-3.9-3.1-6.3-8-6.3-3.8 0-5.9 1.4-5.9 4.1 0 3.4 3.9 4.1 9.5 5.1 8.1 1.4 16.4 3.2 16.4 14.2 0 10.6-9 15.7-20.5 15.7-12 0-18.2-5.1-19.8-12.8l11-3.6c1.1 3.6 2.9 7.1 9.3 7.1 4.6 0 6.7-1.5 6.7-4.4 0-3.5-3.2-4-8.7-5-8.1-1.5-16.8-3.4-16.8-14.7 0-10.3 9-15.2 19.4-15.2 10.5 0 16.3 4.6 18.5 12.3z"></path><path d="m243.3 54.3h-2.6v-14.8h2.6zm-1.2-17.6c-1.2 0-1.8-.7-1.8-1.9s.7-1.9 1.8-1.9 1.9.7 1.9 1.9c-.1 1.2-.8 1.9-1.9 1.9z"></path><path d="m259.3 54.3h-2.6v-9.6c0-2-.7-3.2-2.8-3.2-1.7 0-3.5 1.1-4.3 1.8v11h-2.6v-14.8h2.3l.1 1.8c1.4-1.1 3.3-2.1 5.3-2.1 3.2 0 4.5 1.7 4.5 5.1v10z"></path><path d="m271.3 53.7c-.7.5-2.2 1-3.6 1-2.8 0-4.2-1.3-4.2-4.2v-8.8h-2.3v-2.1h2.3v-4.3l2.6-.4v4.7h4.1v2.1h-4.1v8.4c0 1.6.3 2.4 2.1 2.4.9 0 2-.4 2.6-.7z"></path><path d="m282.4 45.5c0-2.6-1-4.1-3.3-4.1-2 0-3.9 1.2-4 4.1zm-10.1 1.5c0-5.4 3.2-7.7 7-7.7 4.1 0 5.9 2.7 5.9 6.4 0 .6 0 1.2-.1 1.9h-9.9c.1 3.8 1.8 4.9 4.1 4.9 2.1 0 3.1-.9 3.5-2.6l2.3.5c-.6 2.9-2.9 4.3-5.9 4.3-5.3 0-6.9-3.7-6.9-7.7z"></path><path d="m296.1 42c-1.8-.3-4 .5-5.2 1.6v10.7h-2.6v-14.8h2.2l.2 2.1c1.3-1.8 2.8-2.4 4.9-2.4h.5z"></path><path d="m310.7 54.3h-2.6v-9.6c0-2-.7-3.2-2.8-3.2-1.7 0-3.5 1.1-4.3 1.8v11h-2.6v-14.8h2.3l.1 1.8c1.4-1.1 3.3-2.1 5.3-2.1 3.2 0 4.5 1.7 4.5 5.1v10z"></path><path d="m322.5 47.6c-.4-.1-.9-.1-1.5-.1-2 0-4.8.2-4.8 2.7 0 1.3.5 2.4 2.5 2.4 1.5 0 3-.8 3.8-1.7zm2.6 3.9c0 .8.1 1.1.9 1.1.3 0 .5-.1.9-.2l.1 1.6c-.6.3-1.3.5-2 .5-1.5 0-2.1-.8-2.3-1.8-1.1 1.1-2.7 1.8-4.7 1.8-3.7 0-4.4-2.5-4.4-4 0-3.9 3.5-5 7.6-5 .5 0 .9 0 1.3.1v-1.4c0-1.9-.5-3-2.9-3-2 0-2.8.8-3.1 2.4l-2.3-.4c.5-2.8 2.2-4.1 5.7-4.1 3.6 0 5.3 1.4 5.3 5.1z"></path><path d="m337.3 53.7c-.7.5-2.2 1-3.6 1-2.8 0-4.2-1.3-4.2-4.2v-8.8h-2.3v-2.1h2.3v-4.3l2.6-.4v4.7h4.1v2.1h-4.1v8.4c0 1.6.3 2.4 2.1 2.4.9 0 2-.4 2.6-.7z"></path><path d="m342 54.3h-2.6v-14.8h2.6zm-1.2-17.6c-1.2 0-1.8-.7-1.8-1.9s.7-1.9 1.8-1.9 1.9.7 1.9 1.9c-.1 1.2-.7 1.9-1.9 1.9z"></path><path d="m356.1 46.8c0-4.1-1.4-5.4-4-5.4s-4.4 1.6-4.4 5.5 1.4 5.7 4.3 5.7c2.5 0 4.1-1.6 4.1-5.8zm-11.1.2c0-4.8 2.5-7.8 7.2-7.8s6.6 3 6.6 7.4c0 4.9-2 8-7 8-5.1.1-6.8-3.2-6.8-7.6z"></path><path d="m374 54.3h-2.6v-9.6c0-2-.7-3.2-2.8-3.2-1.7 0-3.5 1.1-4.3 1.8v11h-2.6v-14.8h2.3l.1 1.8c1.4-1.1 3.3-2.1 5.3-2.1 3.2 0 4.5 1.7 4.5 5.1v10z"></path><path d="m385.8 47.6c-.4-.1-.9-.1-1.5-.1-2 0-4.8.2-4.8 2.7 0 1.3.5 2.4 2.5 2.4 1.5 0 3-.8 3.8-1.7zm2.6 3.9c0 .8.1 1.1.9 1.1.3 0 .5-.1.9-.2l.1 1.6c-.6.3-1.3.5-2 .5-1.5 0-2.1-.8-2.3-1.8-1.1 1.1-2.7 1.8-4.7 1.8-3.7 0-4.4-2.5-4.4-4 0-3.9 3.5-5 7.6-5 .5 0 .9 0 1.3.1v-1.4c0-1.9-.5-3-2.9-3-2 0-2.8.8-3.1 2.4l-2.3-.4c.5-2.8 2.2-4.1 5.7-4.1 3.6 0 5.3 1.4 5.3 5.1v7.3z"></path><path d="m395.2 54.3h-2.6v-21.7h2.6z"></path><path d="m247.7 62.4c-.6-.2-1.4-.4-2.1-.4-1.4 0-2.3.5-2.3 2.6v2.5h4.1v2.1h-4.1v12.7h-2.6v-12.7h-2.2v-2.1h2.2v-2.4c0-3.2 1.6-4.8 4.4-4.8 1.2 0 2.2.3 2.7.5z"></path><path d="m258.4 73c0-2.6-1-4.1-3.3-4.1-2 0-3.9 1.2-4 4.1zm-10.1 1.5c0-5.4 3.2-7.7 7-7.7 4.1 0 5.9 2.7 5.9 6.4 0 .6 0 1.2-.1 1.9h-10.1c.1 3.8 1.8 4.9 4.1 4.9 2.1 0 3.1-.9 3.5-2.6l2.3.5c-.6 2.9-2.9 4.3-5.9 4.3-5.2 0-6.7-3.7-6.7-7.7z"></path><path d="m273.9 70.3c-.7-.5-2.1-1.3-3.8-1.3-2.8 0-3.9 2.3-3.9 5.7 0 3.6 1.1 5.3 3.7 5.3 1.5 0 3-.9 3.9-1.8v-7.9zm2.5 11.5h-2.2l-.2-1.6c-1.3 1.1-2.8 2-4.9 2-3.4 0-5.6-2.1-5.6-7.5 0-5.8 3-7.9 6.2-7.9 1.7 0 3.1.5 4.1 1.4v-8h2.6z"></path><path d="m289.4 73c0-2.6-1-4.1-3.3-4.1-2 0-3.9 1.2-4 4.1zm-10.1 1.5c0-5.4 3.2-7.7 7-7.7 4.1 0 5.9 2.7 5.9 6.4 0 .6 0 1.2-.1 1.9h-9.9c.1 3.8 1.8 4.9 4.1 4.9 2.1 0 3.1-.9 3.5-2.6l2.3.5c-.6 2.9-2.9 4.3-5.9 4.3-5.3 0-6.9-3.7-6.9-7.7z"></path><path d="m303 69.5c-1.8-.3-4 .5-5.2 1.6v10.7h-2.6v-14.7h2.2l.2 2.1c1.3-1.8 2.8-2.4 4.9-2.4h.5z"></path><path d="m313.2 75.1c-.4-.1-.9-.1-1.5-.1-2 0-4.8.2-4.8 2.7 0 1.3.5 2.4 2.5 2.4 1.5 0 3-.8 3.8-1.7zm2.6 3.9c0 .8.1 1.1.9 1.1.3 0 .5-.1.9-.2l.1 1.6c-.6.3-1.3.5-2 .5-1.5 0-2.1-.8-2.3-1.8-1.1 1.1-2.7 1.8-4.7 1.8-3.7 0-4.4-2.5-4.4-4 0-3.9 3.5-5 7.6-5 .5 0 .9 0 1.3.1v-1.4c0-1.9-.5-3-2.9-3-2 0-2.8.8-3.1 2.4l-2.3-.4c.5-2.8 2.2-4.1 5.7-4.1 3.6 0 5.3 1.4 5.3 5.1z"></path><path d="m328 81.2c-.7.5-2.2 1-3.6 1-2.8 0-4.2-1.3-4.2-4.2v-8.8h-2.3v-2.1h2.3v-4.3l2.6-.4v4.7h4.1v2.1h-4.1v8.4c0 1.6.3 2.4 2.1 2.4.9 0 2-.4 2.6-.7z"></path><path d="m332.6 81.8h-2.6v-14.7h2.6zm-1.2-17.6c-1.2 0-1.8-.7-1.8-1.9s.7-1.9 1.8-1.9c1.2 0 1.9.7 1.9 1.9s-.7 1.9-1.9 1.9z"></path><path d="m346.5 74.3c0-4.1-1.4-5.4-4-5.4s-4.4 1.6-4.4 5.5 1.4 5.7 4.3 5.7c2.5 0 4.1-1.6 4.1-5.8zm-11.1.2c0-4.8 2.5-7.8 7.2-7.8s6.6 3 6.6 7.4c0 4.9-2 8-7 8-5.1.1-6.8-3.2-6.8-7.6z"></path><path d="m364.3 81.8h-2.6v-9.6c0-2-.7-3.2-2.8-3.2-1.7 0-3.5 1.1-4.3 1.8v11h-2.6v-14.7h2.3l.1 1.8c1.4-1.1 3.3-2.1 5.3-2.1 3.2 0 4.5 1.7 4.5 5.1z"></path></g><path clip-path="url(#a)" d="m114.2 86.8c-10.5-6.6-16.4-15.4-16.8-25.4-.5-11.2 5.7-23.2 16.3-31.3.1-.1.2-.1.3-.2.4-.3.6-.7.8-1.2 0-.1.1-.2.1-.3v-.1c0-.1.1-.2.1-.3.1-.5.1-1 .1-1.4 0-.1 0-.2-.1-.3v-.1c0-.1 0-.1-.1-.2 0-.1 0-.1-.1-.2 0 0 0-.1-.1-.1 0-.1-.1-.1-.1-.2s0 0 0-.1c-.1-.1-.1-.2-.2-.3 0 0-.1-.1-.1-.1s0-.1-.1-.1c0-.1-.1-.1-.2-.2 0 0-.1-.1-.1-.1-.1-.1-.2-.2-.3-.3-.1-.1-.2-.2-.4-.3 0 0-.1 0-.1-.1-.1-.1-.2-.1-.3-.2 0 0-.1 0-.1-.1-.1 0-.2-.1-.3-.1s-.1 0-.2 0-.2-.1-.3-.1-.1 0-.2 0c-.2 0-.3 0-.5 0-.1 0-.3 0-.4 0h-.1c-.1 0-.2 0-.4.1-.1 0-.3.1-.4.1-.1 0-.3.1-.4.2-7.1 3.6-14.7 5.5-22.5 5.5-5.2 0-10.3-.8-15.3-2.4-12.7-4.2-22.9-13-29-24.8-.5-.9-1.3-1.6-2.3-1.9-.2 0-.3-.1-.5-.1-.2 0-.3 0-.5 0-.1 0-.3 0-.4 0 0 0 0 0-.1 0s-.3 0-.4.1c-.1 0-.1 0-.2.1h-.1s-.1 0-.1.1c-.1 0-.2.1-.3.1h-.1c-.1 0-.1.1-.2.1 0 0-.1.1-.1.1-.1 0-.1.1-.2.1 0 0-.1.1-.1.1s-.1.1-.1.1c-.1 0-.1.1-.2.1 0 0-.1.1-.1.1-.1.1-.1.1-.2.2 0 0 0 .1-.1.1 0 .1-.1.1-.1.2 0 0 0 .1-.1.1-.2.1-.2.1-.3.2 0 0 0 .1-.1.1 0 .1-.1.1-.1.2s0 .1-.1.2c0 .1 0 .1-.1.2 0 .1 0 .1-.1.2v.1.2.1.2.1.2.2.2.2.2c0 .1 0 .1.1.2 3.9 12.7 2.6 26.1-3.6 37.8-6.1 11.9-16.5 20.5-29.2 24.4-.5.2-1 .4-1.4.8-.1.1-.2.2-.3.2 0 0 0 .1-.1.1-.1.1-.1.1-.2.2 0 .1-.1.1-.1.2 0 0-.1.1-.1.1-.1.1-.1.2-.2.3-.2.5-.3 1.2-.3 1.9.1 2.1 1.8 3.7 3.9 3.7h1.7c14.5 0 28.5 6 36.5 15.8l.1.1c.7.8 1.3 1.7 1.8 2.6-8.9 3.7-14 8.9-15.7 15.7-1.2 4.7-.2 9.2 2.7 12.3 2.3 2.5 5.6 3.9 9.1 3.9.7 0 1.4-.1 2.1-.2 3.9-.6 7.5-3 9.9-6.6 1.9-2.8 4-7.7 3.2-15-.2-1.9-.6-3.8-1.1-5.6 1.1-.3 2.4-.6 3.7-.9 1-.2 2-.4 2.9-.6 1.3-.2 2.6-.4 3.7-.3 2 .2 3.2.8 4.3 1.5.2.1.4.2.6.3 1.2.7 2.6 1.1 4.1 1.1 4.6 0 8.3-3.7 8.3-8.3s-3.7-8.3-8.3-8.3c-.7 0-1.3.1-2 .2-.1 0-.2 0-.3.1-.4.1-.9.3-1.4.5-.1 0-.2.1-.3.1-.2.1-.3.2-.5.3-.1.1-.2.2-.4.2-.7.5-1.5 1.1-2.1 1.7-1 .8-2 1.7-3.2 2.3-.7.3-1.7.6-3.1.9h-.2c-3.2.6-6.2 1.2-8.8 2-2.1-3.7-4.9-7.1-8.5-10.2l.2-.1c-.1-.1-.3-.2-.4-.3-6.6-5.6-15-9.6-24-11.5 8.5-5.3 15.5-12.8 20.3-21.8 4.5-8.5 6.8-17.9 6.7-27.3 6.5 6.8 14.6 11.9 23.8 14.9 5.8 1.9 11.7 2.8 17.7 2.8 3.7 0 7.3-.4 10.8-1-5.5 8-8.5 17.2-8.1 26s4.3 21.4 20.4 31.5c.6.4 1.3.6 2 .6 1.3 0 2.5-.7 3.2-1.8 1.3-1.8.7-4.2-1.1-5.3m-73 30.3c-1.7.3-3.3-.3-4.4-1.4-1.1-1.2-1.5-3.1-.9-5.3 1.1-4.3 4.9-7.9 11.3-10.6.3 1.3.6 2.7.7 4 1 8.9-3.5 12.8-6.7 13.3" fill="#e24301"></path></svg>